<?xml version="1.0" standalone="no"?>
<!DOCTYPE svg PUBLIC "-//W3C//DTD SVG 20010904//EN"
 "http://www.w3.org/TR/2001/REC-SVG-20010904/DTD/svg10.dtd">
<svg version="1.0" xmlns="http://www.w3.org/2000/svg"
 width="50.000000pt" height="50.000000pt" viewBox="0 0 50.000000 50.000000"
 preserveAspectRatio="xMidYMid meet">

<g transform="translate(0.000000,50.000000) scale(0.100000,-0.100000)"
fill="#4f46e5" stroke="none">
<path d="M126 410 c-4 -14 -2 -54 3 -90 8 -55 7 -67 -6 -75 -64 -41 -77 -52
-87 -67 -8 -14 -7 -22 6 -34 22 -22 151 -22 223 0 27 8 51 13 54 11 7 -7 -82
-45 -106 -45 -25 0 -29 -10 -11 -28 16 -16 71 -15 112 2 40 17 49 30 48 67 0
21 5 30 26 37 35 12 92 60 92 77 0 24 -31 38 -91 39 -59 2 -62 3 -78 36 -23
47 -42 57 -90 44 -39 -11 -42 -10 -65 20 l-24 31 -6 -25z m141 -62 c6 -7 15
-29 22 -48 14 -41 1 -55 -56 -66 -43 -8 -51 0 -55 56 -3 43 -2 45 32 57 45 15
46 15 57 1z"/>
</g>
</svg>
